<svg width="29" height="29" viewBox="0 0 29 29" fill="none" xmlns="http://www.w3.org/2000/svg">
<circle cx="14.5" cy="14.5" r="10.5" fill="#9B9B9B"/>
<path d="M7.5 21C7.5 18.5 10.5 16.5 14.5 16.5C18.5 16.5 21.5 18.5 21.5 21C21.5 21 18 23.5 14.5 23.5C11 23.5 7.5 21 7.5 21Z" fill="white"/>
<path fill-rule="evenodd" clip-rule="evenodd" d="M14.5 15C16.433 15 18 13.433 18 11.5C18 9.567 16.433 8 14.5 8C12.567 8 11 9.567 11 11.5C11 13.433 12.567 15 14.5 15Z" fill="white"/>
<circle cx="14.5" cy="14.5" r="9.5" stroke="#9B9B9B" stroke-width="2"/>
</svg>
