<svg width="20" height="20" viewBox="0 0 20 20" fill="none" xmlns="http://www.w3.org/2000/svg">
<path d="M0.862639 16.4642C0.721643 16.3779 0.604043 16.3027 0.51283 16.2431C0.606643 15.3063 1.21313 14.4203 2.27249 13.7317C3.42697 12.9813 5.07797 12.5 7 12.5C8.92203 12.5 10.573 12.9813 11.7275 13.7317C12.7869 14.4203 13.3934 15.3063 13.4872 16.2431C13.396 16.3027 13.2784 16.3779 13.1374 16.4642C12.7662 16.6915 12.2348 16.9951 11.5975 17.2986C10.3133 17.9101 8.64207 18.5 7 18.5C5.35793 18.5 3.6867 17.9101 2.40247 17.2986C1.76517 16.9951 1.23384 16.6915 0.862639 16.4642Z" stroke="#9B9B9B"/>
<path d="M13 13C17 13 18.5 14.5 19 16.4615C19 16.4615 17 18 13.5 18" stroke="#9B9B9B"/>
<path d="M10.5 7C10.5 8.933 8.933 10.5 7 10.5C5.067 10.5 3.5 8.933 3.5 7C3.5 5.067 5.067 3.5 7 3.5C8.933 3.5 10.5 5.067 10.5 7Z" stroke="#9B9B9B"/>
<path d="M12.0711 5.21807C12.402 5.07744 12.7637 5 13.1426 5C14.7207 5 16 6.34315 16 8C16 9.65685 14.7207 11 13.1426 11C12.7364 11 12.3499 10.911 12 10.7505" stroke="#9B9B9B"/>
</svg>
